<svg xmlns="http://www.w3.org/2000/svg" xmlns:xlink="http://www.w3.org/1999/xlink" viewBox="0,0,256,256" width="40px" height="40px"><g fill="none" fill-rule="nonzero" stroke="none" stroke-width="1" stroke-linecap="butt" stroke-linejoin="miter" stroke-miterlimit="10" stroke-dasharray="" stroke-dashoffset="0" font-family="none" font-weight="none" font-size="none" text-anchor="none" style="mix-blend-mode: normal"><g transform="scale(6.4,6.4)"><path d="M3.5,38.5v-25.214l16.498,-9.706l16.502,9.706v25.214z" fill="#ffffff"></path><path d="M19.998,4.16l16.002,9.412v24.428h-32v-24.428l15.998,-9.412M19.998,3l-16.998,10v26h34v-26l-17.002,-10z" fill="#000000"></path><path d="M4,34h32v4h-32z" fill="#ffffff"></path><path d="M19.998,4.645l-18.498,11.31v-3.059l18.498,-11.31l18.502,11.31v3.059z" fill="#ffffff"></path><path d="M19.998,2.172l18.002,11.004v1.887l-17.481,-10.685l-0.522,-0.319l-0.522,0.319l-17.475,10.685v-1.887l17.998,-11.004M19.998,1l-18.998,11.615v4.231l18.998,-11.615l19.002,11.615v-4.231l-19.002,-11.615z" fill="#000000"></path><g><path d="M14.5,21.5h11v17h-11z" fill="#ffffff"></path><path d="M25,22v16h-10v-16h10M26,21h-12v18h12v-18z" fill="#000000"></path></g><path d="M23,30c-0.55228,0 -1,0.44772 -1,1c0,0.55228 0.44772,1 1,1c0.55228,0 1,-0.44772 1,-1c0,-0.55228 -0.44772,-1 -1,-1z" fill="#000000"></path></g></g></svg>